# xmcd
#
# Track frame offsets:
#        150
#        17932
#        40365
#        63775
#        81932
#        104705
#        130140
#        145590
#        164695
#        182610
#
# Disc length: 2838 seconds
#
# Revision: 0
# Processed by: cddbd v1.5.1PL0 Copyright (c) Steve Scherf et al.
# Submitted via: ExactAudioCopy v0.95a5
#
DISCID=890b140a
DTITLE=THE ROOSTERZ - KAMINARI
DYEAR=2003
DGENRE=Rock
TTITLE0=OH! MY GOD
TTITLE1=CRIMINAL ROCK
TTITLE2=CRAZY ROMANCE
TTITLE3=PRECIOUS
TTITLE4=WORM JETTY
TTITLE5=BLUE NIGHT
TTITLE6=GIRL
TTITLE7=NO NO NO
TTITLE8=SERCHIN'
TTITLE9=DARK CRISTAL
EXTD=
EXTT0=
EXTT1=
EXTT2=
EXTT3=
EXTT4=
EXTT5=
EXTT6=
EXTT7=
EXTT8=
EXTT9=
PLAYORDER=
